<?xml version="1.0" standalone="no"?>
<!DOCTYPE svg PUBLIC "-//W3C//DTD SVG 20010904//EN"
 "http://www.w3.org/TR/2001/REC-SVG-20010904/DTD/svg10.dtd">
<svg version="1.0" xmlns="http://www.w3.org/2000/svg"
 width="512.000000pt" height="512.000000pt" viewBox="0 0 512.000000 512.000000"
 preserveAspectRatio="xMidYMid meet">

<g transform="translate(0.000000,512.000000) scale(0.100000,-0.100000)"
fill="#000000" stroke="none">
<path d="M2076 5014 c-169 -57 -333 -118 -365 -136 -76 -43 -189 -159 -228
-233 -17 -33 -167 -375 -334 -760 -336 -776 -334 -771 -274 -823 19 -17 155
-76 373 -161 l342 -134 0 -73 0 -73 -613 -3 -613 -3 -37 -25 c-21 -14 -46 -43
-57 -66 -20 -40 -20 -64 -20 -1215 l0 -1175 23 -44 c12 -24 35 -53 50 -64 28
-21 35 -21 1183 -24 l1155 -2 24 24 c30 30 32 65 6 97 l-19 24 -309 5 -308 5
-3 220 -2 220 508 508 507 507 220 -2 220 -3 0 -725 0 -725 -286 -5 c-264 -5
-289 -7 -308 -24 -31 -28 -28 -79 5 -105 26 -20 38 -21 313 -21 256 0 290 2
326 19 71 32 105 93 105 185 l0 55 58 -34 c31 -19 92 -46 135 -60 402 -134
819 77 958 485 30 88 33 105 33 225 0 147 -14 216 -69 331 -82 170 -229 307
-408 378 -61 24 -104 35 -209 51 l-38 6 0 265 c0 168 -4 273 -11 285 -23 44
-104 44 -126 1 -4 -10 -10 -140 -13 -291 l-5 -274 -57 -13 c-63 -15 -173 -62
-218 -94 l-30 -21 0 58 c0 74 -26 132 -76 169 l-37 29 -589 3 -588 2 0 353
c-1 369 -4 402 -47 449 -45 50 -62 53 -330 56 l-252 4 -3 831 c-3 935 5 837
-85 1011 -44 86 -45 90 -30 120 24 50 90 118 148 153 44 26 532 203 561 203 4
0 12 -19 19 -42 47 -177 218 -332 407 -369 249 -48 508 104 590 345 10 31 21
59 24 62 3 3 122 -34 263 -82 294 -100 350 -130 421 -227 24 -32 44 -63 44
-68 0 -5 -22 -50 -50 -101 -85 -160 -80 -96 -80 -1105 l0 -892 23 -25 c32 -36
74 -39 107 -6 18 18 20 33 20 178 l0 159 338 133 c185 72 348 139 360 147 31
19 55 78 47 112 -4 14 -146 350 -316 746 -327 759 -355 815 -453 900 -81 71
-166 109 -482 215 l-298 100 -465 -1 -466 0 -309 -105z m1144 -57 c0 -8 -14
-41 -30 -74 -37 -74 -111 -145 -188 -181 -49 -23 -70 -27 -147 -27 -80 0 -97
3 -157 32 -81 38 -147 103 -182 178 -44 92 -74 85 339 85 298 0 365 -2 365
-13z m-1659 -639 l24 -53 3 -667 c1 -368 1 -668 0 -668 -19 1 -582 231 -581
237 6 28 517 1203 523 1203 4 0 18 -24 31 -52z m2882 -546 c141 -329 257 -602
257 -608 0 -7 -245 -107 -572 -232 -5 -2 -7 277 -6 670 l3 673 24 48 c14 26
27 47 30 47 4 0 122 -269 264 -598z m-2228 -1657 l0 -350 -82 -3 -83 -3 0 212
c0 195 -2 216 -21 255 -12 26 -36 53 -57 66 -37 23 -40 23 -378 23 -322 0
-343 -1 -363 -19 -26 -24 -29 -87 -4 -107 12 -11 86 -15 342 -19 l326 -5 0
-850 0 -850 -587 -3 -588 -2 0 855 0 855 133 0 c146 0 158 4 172 61 5 20 0 33
-18 55 l-25 29 -149 0 c-165 0 -192 -8 -235 -67 l-23 -33 0 -900 0 -900 24
-34 c13 -18 42 -42 65 -52 39 -17 77 -19 639 -19 l597 0 0 -80 0 -80 -750 0
-750 0 0 1153 c0 635 3 1157 7 1160 3 4 412 6 907 5 l901 -3 0 -350z m240
-905 l-400 -400 -3 387 c-1 214 0 394 3 400 3 10 93 13 402 13 l398 0 -400
-400z m1827 246 c185 -65 333 -215 389 -396 133 -427 -241 -853 -679 -776 -98
17 -204 65 -279 125 l-53 41 0 428 0 428 28 26 c75 69 196 128 305 148 80 14
210 3 289 -24z"/>
<path d="M1210 2049 c-110 -21 -230 -105 -287 -200 -57 -95 -64 -148 -61 -418
3 -266 4 -268 78 -318 31 -21 44 -23 182 -23 172 0 184 4 247 78 31 38 55 55
102 73 194 72 313 269 279 459 -44 244 -284 399 -540 349z m227 -169 c73 -31
137 -102 158 -174 41 -140 -35 -270 -193 -330 -51 -20 -86 -41 -117 -73 -25
-24 -45 -49 -45 -54 0 -5 -52 -9 -116 -9 l-115 0 3 233 3 232 30 54 c73 132
245 185 392 121z"/>
<path d="M890 960 c-25 -25 -26 -74 -1 -99 27 -27 75 -34 181 -29 106 5 130
20 130 78 0 63 -17 70 -163 70 -114 0 -129 -2 -147 -20z"/>
<path d="M903 738 c-48 -23 -51 -103 -4 -127 12 -7 101 -11 230 -11 l210 0 20
26 c28 35 26 69 -4 99 -24 25 -24 25 -227 24 -120 0 -212 -5 -225 -11z"/>
<path d="M3997 1146 c-200 -72 -249 -340 -86 -480 180 -154 461 -23 458 214
-1 118 -50 199 -149 249 -71 35 -154 41 -223 17z m184 -175 c35 -35 39 -44 39
-90 0 -44 -5 -56 -33 -87 -28 -30 -42 -37 -83 -41 -40 -4 -55 0 -84 19 -108
73 -54 238 78 238 38 0 50 -5 83 -39z"/>
<path d="M2845 4159 c-231 -23 -423 -183 -480 -400 -21 -76 -21 -654 -1 -702
17 -43 76 -93 123 -106 49 -14 317 -14 366 0 43 12 97 56 127 103 11 18 39 42
62 54 24 11 82 39 129 61 138 65 247 194 284 336 46 178 -5 357 -139 490 -130
129 -286 183 -471 164z m185 -161 c114 -34 211 -115 258 -216 23 -49 27 -70
27 -147 0 -76 -4 -99 -26 -146 -49 -104 -124 -169 -248 -216 -88 -32 -136 -67
-183 -130 l-39 -53 -147 0 c-102 0 -152 4 -160 12 -8 8 -12 66 -12 195 0 176
1 183 20 183 34 0 62 36 58 78 -2 30 -10 41 -42 62 -37 24 -38 26 -32 70 9 66
60 162 112 210 106 98 277 138 414 98z"/>
<path d="M2780 3639 c-62 -28 -80 -47 -80 -84 0 -37 35 -75 69 -75 27 0 119
37 144 58 23 20 23 84 -1 105 -24 22 -76 20 -132 -4z"/>
<path d="M2823 1148 c-329 -329 -331 -331 -278 -383 51 -52 54 -50 372 267
161 161 296 303 301 318 16 45 -23 100 -72 100 -13 0 -129 -109 -323 -302z"/>
<path d="M2185 415 c-28 -27 -30 -42 -14 -78 16 -34 49 -47 125 -47 56 0 68 4
89 25 32 31 33 74 2 103 -20 19 -35 22 -101 22 -68 0 -80 -3 -101 -25z"/>
</g>
</svg>
